<?xml version="1.0" encoding="UTF-8" standalone="no"?>
<!-- Created with Inkscape (http://www.inkscape.org/) -->

<svg
   xmlns:dc="http://purl.org/dc/elements/1.1/"
   xmlns:cc="http://creativecommons.org/ns#"
   xmlns:rdf="http://www.w3.org/1999/02/22-rdf-syntax-ns#"
   xmlns:svg="http://www.w3.org/2000/svg"
   xmlns="http://www.w3.org/2000/svg"
   xmlns:sodipodi="http://sodipodi.sourceforge.net/DTD/sodipodi-0.dtd"
   xmlns:inkscape="http://www.inkscape.org/namespaces/inkscape"
   width="52.916679mm"
   height="35.277485mm"
   viewBox="0 0 52.91668 35.277486"
   version="1.1"
   id="svg8"
   inkscape:export-filename="C:\Users\Rudi\Downloads\squirrel.png"
   inkscape:export-xdpi="300"
   inkscape:export-ydpi="300"
   inkscape:version="0.92.3 (2405546, 2018-03-11)"
   sodipodi:docname="squirrel.svg">
  <defs
     id="defs2" />
  <sodipodi:namedview
     id="base"
     pagecolor="#ffffff"
     bordercolor="#666666"
     borderopacity="1.0"
     inkscape:pageopacity="0.0"
     inkscape:pageshadow="2"
     inkscape:zoom="4.1093751"
     inkscape:cx="99.204924"
     inkscape:cy="71.367067"
     inkscape:document-units="mm"
     inkscape:current-layer="layer1"
     showgrid="false"
     inkscape:window-width="1920"
     inkscape:window-height="986"
     inkscape:window-x="-11"
     inkscape:window-y="-11"
     inkscape:window-maximized="1"
     fit-margin-top="0"
     fit-margin-left="0"
     fit-margin-right="0"
     fit-margin-bottom="0">
    <inkscape:grid
       type="xygrid"
       id="grid10"
       originx="-108.47917"
       originy="-206.11041" />
  </sodipodi:namedview>
  <metadata
     id="metadata5">
    <rdf:RDF>
      <cc:Work
         rdf:about="">
        <dc:format>image/svg+xml</dc:format>
        <dc:type
           rdf:resource="http://purl.org/dc/dcmitype/StillImage" />
        <dc:title></dc:title>
      </cc:Work>
    </rdf:RDF>
  </metadata>
  <g
     inkscape:label="Layer 1"
     inkscape:groupmode="layer"
     id="layer1"
     transform="translate(-108.47917,-55.6121)">
    <path
       style="fill:#eacab2;stroke:none;stroke-width:0.26458332px;stroke-linecap:butt;stroke-linejoin:miter;stroke-opacity:1;fill-opacity:1"
       d="m 120.23821,79.130416 8e-5,5.879596 h 2.93964 l 2.9e-4,2.939759 h 5.87984 l -3.7e-4,-5.879567 h -5.87976 l 1.2e-4,-2.939788 z"
       id="path104"
       inkscape:connector-curvature="0" />
    <path
       style="fill:#bc5d04;stroke:none;stroke-width:0.26458332px;stroke-linecap:butt;stroke-linejoin:miter;stroke-opacity:1;fill-opacity:1"
       d="m 149.63617,67.37126 5.87948,1.2e-5 1.2e-4,5.879572 h 2.93976 v -8.819372 l -8.81943,1.3e-5 z"
       id="path102"
       inkscape:connector-curvature="0" />
    <path
       style="fill:#bc5d04;stroke:none;stroke-width:0.26458332px;stroke-linecap:butt;stroke-linejoin:miter;stroke-opacity:1;fill-opacity:1"
       d="m 134.93717,87.949784 5.87964,1.6e-5 v -2.939788 l -5.87964,-1.3e-5 z"
       id="path100"
       inkscape:connector-curvature="0" />
    <path
       inkscape:connector-curvature="0"
       id="path3734"
       d="m 123.17805,61.491684 h 2.93988 v 2.9398 h -2.93988 z"
       style="fill:#ff8716;fill-opacity:1;stroke:none;stroke-width:2.93978858px;stroke-linecap:butt;stroke-linejoin:miter;stroke-opacity:1" />
    <path
       inkscape:connector-curvature="0"
       id="path3748"
       d="m 114.35865,67.371272 h 2.93988 v 2.939796 h -2.93988 z"
       style="fill:#522700;fill-opacity:1;stroke:none;stroke-width:2.93978858px;stroke-linecap:butt;stroke-linejoin:miter;stroke-opacity:1" />
    <path
       inkscape:connector-curvature="0"
       id="path3758"
       d="m 108.47917,70.311044 h 2.93988 v 2.9398 h -2.93988 z"
       style="fill:#bc5d04;fill-opacity:1;stroke:none;stroke-width:2.93978858px;stroke-linecap:butt;stroke-linejoin:miter;stroke-opacity:1" />
    <path
       style="fill:#eacab2;fill-opacity:1;stroke:none;stroke-width:2.93978858px;stroke-linecap:butt;stroke-linejoin:miter;stroke-opacity:1"
       d="m 117.29853,73.250844 h 2.93988 v 2.939796 h -2.93988 z"
       id="path3764"
       inkscape:connector-curvature="0" />
    <path
       style="fill:#bc5d04;fill-opacity:1;stroke:none;stroke-width:2.93978858px;stroke-linecap:butt;stroke-linejoin:miter;stroke-opacity:1"
       d="m 123.17805,79.130416 h 2.93988 v 2.939788 h -2.93988 z"
       id="path3842"
       inkscape:connector-curvature="0" />
    <path
       inkscape:connector-curvature="0"
       id="path3946"
       d="m 152.57593,73.250844 h 2.93984 v 2.939796 h -2.93984 z"
       style="fill:#bc5d04;fill-opacity:1;stroke:none;stroke-width:2.93978858px;stroke-linecap:butt;stroke-linejoin:miter;stroke-opacity:1" />
    <path
       style="fill:#ff8716;fill-opacity:1;stroke:none;stroke-width:0.26458332px;stroke-linecap:butt;stroke-linejoin:miter;stroke-opacity:1"
       d="m 123.17829,64.43146 h -8.81948 v 2.9398 h 2.93988 v 2.939796 h -2.93988 V 67.37126 h -2.93972 l 1.2e-4,5.879572 h 8.81936 l 1.2e-4,2.939796 h -5.87988 v 2.939788 h 11.75912 l 1.6e-4,2.939776 h 2.93952 l 4.5e-4,5.87958 h -5.87984 l 8e-5,2.939788 h 11.75916 l -1.2e-4,-8.819368 -2.93964,8e-6 -1.2e-4,-5.879584 h -2.93989 l 1.6e-4,-2.939784 -2.93968,8e-6 -8e-5,-2.939808 -2.93988,-1.2e-5 z"
       id="path96"
       inkscape:connector-curvature="0" />
    <path
       style="fill:#ff8716;fill-opacity:1;stroke:none;stroke-width:0.26458332px;stroke-linecap:butt;stroke-linejoin:miter;stroke-opacity:1"
       d="m 137.87701,85.01 1.6e-4,-20.578527 h 2.93984 l -2e-4,-2.939788 h 2.93984 l 1.2e-4,-2.939796 2.94008,2.4e-5 v -2.9398 h 8.81936 v 2.9398 l 2.93932,-2.4e-5 2.6e-4,2.939796 h 2.94 l -5.3e-4,8.819372 h -2.94 l 1.2e-4,-5.879584 -8.81928,1.2e-5 1.2e-4,5.879596 -2.94028,-3.6e-5 2.7e-4,8.819384 h -2.9402 l 5.3e-4,5.879584 z"
       id="path98"
       inkscape:connector-curvature="0" />
  </g>
</svg>
