<?xml version="1.0" encoding="UTF-8" standalone="no"?>
<!-- Created with Inkscape (http://www.inkscape.org/) -->

<svg
   xmlns:dc="http://purl.org/dc/elements/1.1/"
   xmlns:cc="http://creativecommons.org/ns#"
   xmlns:rdf="http://www.w3.org/1999/02/22-rdf-syntax-ns#"
   xmlns:svg="http://www.w3.org/2000/svg"
   xmlns="http://www.w3.org/2000/svg"
   xmlns:sodipodi="http://sodipodi.sourceforge.net/DTD/sodipodi-0.dtd"
   xmlns:inkscape="http://www.inkscape.org/namespaces/inkscape"
   width="26.458309mm"
   height="17.638723mm"
   viewBox="0 0 26.458309 17.638724"
   version="1.1"
   id="svg8"
   inkscape:export-filename="C:\Users\Rudi\Downloads\squirrel.png"
   inkscape:export-xdpi="300"
   inkscape:export-ydpi="300"
   inkscape:version="0.92.3 (2405546, 2018-03-11)"
   sodipodi:docname="squirrel.svg">
  <defs
     id="defs2" />
  <sodipodi:namedview
     id="base"
     pagecolor="#ffffff"
     bordercolor="#666666"
     borderopacity="1.0"
     inkscape:pageopacity="0.0"
     inkscape:pageshadow="2"
     inkscape:zoom="4.1093751"
     inkscape:cx="51.874127"
     inkscape:cy="71.366973"
     inkscape:document-units="mm"
     inkscape:current-layer="layer1"
     showgrid="false"
     inkscape:window-width="1920"
     inkscape:window-height="986"
     inkscape:window-x="-11"
     inkscape:window-y="-11"
     inkscape:window-maximized="1"
     fit-margin-top="0"
     fit-margin-left="0"
     fit-margin-right="0"
     fit-margin-bottom="0">
    <inkscape:grid
       type="xygrid"
       id="grid10"
       originx="-108.47917"
       originy="-206.11045" />
  </sodipodi:namedview>
  <metadata
     id="metadata5">
    <rdf:RDF>
      <cc:Work
         rdf:about="">
        <dc:format>image/svg+xml</dc:format>
        <dc:type
           rdf:resource="http://purl.org/dc/dcmitype/StillImage" />
        <dc:title></dc:title>
      </cc:Work>
    </rdf:RDF>
  </metadata>
  <g
     inkscape:label="Layer 1"
     inkscape:groupmode="layer"
     id="layer1"
     transform="translate(-108.47917,-73.250837)">
    <path
       style="fill:#eacab2;fill-opacity:1;stroke:none;stroke-width:0.13229166px;stroke-linecap:butt;stroke-linejoin:miter;stroke-opacity:1"
       d="m 114.35869,85.009988 4e-5,2.939798 h 1.46982 l 1.4e-4,1.46988 h 2.93992 l -1.8e-4,-2.939784 h -2.93988 l 6e-5,-1.469894 z"
       id="path104"
       inkscape:connector-curvature="0" />
    <path
       style="fill:#bc5d04;fill-opacity:1;stroke:none;stroke-width:0.13229166px;stroke-linecap:butt;stroke-linejoin:miter;stroke-opacity:1"
       d="m 129.05767,79.13041 2.93974,6e-6 6e-5,2.939786 h 1.46988 v -4.409686 l -4.40972,6e-6 z"
       id="path102"
       inkscape:connector-curvature="0" />
    <path
       style="fill:#bc5d04;fill-opacity:1;stroke:none;stroke-width:0.13229166px;stroke-linecap:butt;stroke-linejoin:miter;stroke-opacity:1"
       d="m 121.70817,89.419672 2.93982,8e-6 v -1.469894 l -2.93982,-6e-6 z"
       id="path100"
       inkscape:connector-curvature="0" />
    <path
       inkscape:connector-curvature="0"
       id="path3734"
       d="m 115.82861,76.190622 h 1.46994 v 1.4699 h -1.46994 z"
       style="fill:#ff8716;fill-opacity:1;stroke:none;stroke-width:1.46989429px;stroke-linecap:butt;stroke-linejoin:miter;stroke-opacity:1" />
    <path
       inkscape:connector-curvature="0"
       id="path3748"
       d="m 111.41891,79.130416 h 1.46994 v 1.469898 h -1.46994 z"
       style="fill:#522700;fill-opacity:1;stroke:none;stroke-width:1.46989429px;stroke-linecap:butt;stroke-linejoin:miter;stroke-opacity:1" />
    <path
       inkscape:connector-curvature="0"
       id="path3758"
       d="m 108.47917,80.600302 h 1.46994 v 1.4699 h -1.46994 z"
       style="fill:#bc5d04;fill-opacity:1;stroke:none;stroke-width:1.46989429px;stroke-linecap:butt;stroke-linejoin:miter;stroke-opacity:1" />
    <path
       style="fill:#eacab2;fill-opacity:1;stroke:none;stroke-width:1.46989429px;stroke-linecap:butt;stroke-linejoin:miter;stroke-opacity:1"
       d="m 112.88885,82.070202 h 1.46994 V 83.5401 h -1.46994 z"
       id="path3764"
       inkscape:connector-curvature="0" />
    <path
       style="fill:#bc5d04;fill-opacity:1;stroke:none;stroke-width:1.46989429px;stroke-linecap:butt;stroke-linejoin:miter;stroke-opacity:1"
       d="m 115.82861,85.009988 h 1.46994 v 1.469894 h -1.46994 z"
       id="path3842"
       inkscape:connector-curvature="0" />
    <path
       inkscape:connector-curvature="0"
       id="path3946"
       d="m 130.52755,82.070202 h 1.46992 V 83.5401 h -1.46992 z"
       style="fill:#bc5d04;fill-opacity:1;stroke:none;stroke-width:1.46989429px;stroke-linecap:butt;stroke-linejoin:miter;stroke-opacity:1" />
    <path
       style="fill:#ff8716;fill-opacity:1;stroke:none;stroke-width:0.13229166px;stroke-linecap:butt;stroke-linejoin:miter;stroke-opacity:1"
       d="m 115.82873,77.66051 h -4.40974 v 1.4699 h 1.46994 v 1.469898 h -1.46994 V 79.13041 h -1.46986 l 6e-5,2.939786 h 4.40968 l 6e-5,1.469898 h -2.93994 v 1.469894 h 5.87956 l 8e-5,1.469888 h 1.46976 l 2.2e-4,2.93979 h -2.93992 l 4e-5,1.469894 h 5.87959 l -7e-5,-4.409684 -1.46982,4e-6 -6e-5,-2.939792 h -1.46994 l 8e-5,-1.469892 -1.46984,4e-6 -4e-5,-1.469904 -1.46994,-6e-6 z"
       id="path96"
       inkscape:connector-curvature="0" />
    <path
       style="fill:#ff8716;fill-opacity:1;stroke:none;stroke-width:0.13229166px;stroke-linecap:butt;stroke-linejoin:miter;stroke-opacity:1"
       d="m 123.17809,87.94978 8e-5,-10.289264 h 1.46992 l -1e-4,-1.469893 h 1.46992 l 6e-5,-1.469898 1.47004,1.2e-5 v -1.4699 h 4.40968 v 1.4699 l 1.46966,-1.2e-5 1.3e-4,1.469898 h 1.47 l -2.7e-4,4.409686 h -1.47 l 6e-5,-2.939793 -4.40964,7e-6 7e-5,2.939798 -1.47014,-1.8e-5 1.3e-4,4.409692 h -1.4701 l 2.7e-4,2.939792 z"
       id="path98"
       inkscape:connector-curvature="0" />
  </g>
</svg>
